<svg width="99" height="39" viewBox="0 0 99 39" fill="none" xmlns="http://www.w3.org/2000/svg">
<g clip-path="url(#clip0_22_6841)">
<path d="M-0.000159763 15.0878C5.57689 23.0703 29.8412 31.016 46.1619 30.5173C63.8029 30.0183 73.4634 26.5277 92.271 13.6923C92.2164 15.0977 92.0507 16.2413 92.0775 17.2846C92.0581 18.4748 92.0496 19.7331 92.3014 20.8803C92.3556 21.2209 93.063 21.7369 93.4805 21.7404C93.898 21.7439 94.5 21.1594 94.5815 20.7973C95.2819 17.334 95.8468 13.8922 96.4686 10.3716C96.6344 9.22789 96.0978 8.47516 94.8914 8.31772C90.3125 7.92806 85.7229 7.4703 81.0871 7.15953C80.0379 7.11676 78.8612 7.5831 77.5056 7.79853C79.0555 10.555 81.4414 9.8267 83.3228 10.2959C85.2827 10.8224 87.3241 10.9868 89.8263 11.4272C84.8067 16.1355 79.4921 19.4243 73.6979 21.8815C52.4894 30.9783 31.4195 29.5781 10.6745 20.1652C7.97467 18.9183 5.43486 17.3666 2.79197 16.0408C1.99227 15.8187 1.26034 15.5859 -0.000159763 15.0878Z" fill="#3E69AD"/>
</g>
<defs>
<clipPath id="clip0_22_6841">
<rect width="96.1304" height="23.346" fill="white" transform="matrix(0.987606 -0.156951 -0.156951 -0.987606 3.66406 38.1445)"/>
</clipPath>
</defs>
</svg>
