<svg width="392" height="392" viewBox="0 0 392 392" fill="none" xmlns="http://www.w3.org/2000/svg">
<circle cx="196" cy="179" r="80.5" stroke="white" stroke-dasharray="3 3"/>
<circle cx="196" cy="196" r="195.5" stroke="white" stroke-dasharray="3 3"/>
<path d="M177.438 159.126C176.61 159.126 175.878 158.982 175.242 158.694C174.618 158.406 174.126 158.004 173.766 157.488C173.406 156.972 173.214 156.396 173.19 155.76H174.522C174.582 156.372 174.852 156.912 175.332 157.38C175.812 157.836 176.514 158.064 177.438 158.064C178.29 158.064 178.962 157.848 179.454 157.416C179.958 156.972 180.21 156.414 180.21 155.742C180.21 155.202 180.072 154.77 179.796 154.446C179.52 154.11 179.178 153.864 178.77 153.708C178.362 153.54 177.798 153.36 177.078 153.168C176.238 152.94 175.572 152.718 175.08 152.502C174.588 152.286 174.168 151.95 173.82 151.494C173.472 151.038 173.298 150.42 173.298 149.64C173.298 148.992 173.466 148.416 173.802 147.912C174.138 147.396 174.612 146.994 175.224 146.706C175.836 146.418 176.538 146.274 177.33 146.274C178.494 146.274 179.43 146.562 180.138 147.138C180.858 147.702 181.272 148.434 181.38 149.334H180.012C179.928 148.818 179.646 148.362 179.166 147.966C178.686 147.558 178.038 147.354 177.222 147.354C176.466 147.354 175.836 147.558 175.332 147.966C174.828 148.362 174.576 148.908 174.576 149.604C174.576 150.132 174.714 150.558 174.99 150.882C175.266 151.206 175.608 151.452 176.016 151.62C176.436 151.788 177 151.968 177.708 152.16C178.524 152.388 179.184 152.616 179.688 152.844C180.192 153.06 180.618 153.396 180.966 153.852C181.314 154.308 181.488 154.92 181.488 155.688C181.488 156.276 181.332 156.834 181.02 157.362C180.708 157.89 180.246 158.316 179.634 158.64C179.022 158.964 178.29 159.126 177.438 159.126ZM183.346 154.086C183.346 153.066 183.55 152.178 183.958 151.422C184.366 150.654 184.93 150.066 185.65 149.658C186.37 149.238 187.192 149.028 188.116 149.028C189.328 149.028 190.324 149.328 191.104 149.928C191.896 150.528 192.406 151.344 192.634 152.376H191.284C191.116 151.668 190.75 151.116 190.186 150.72C189.634 150.312 188.944 150.108 188.116 150.108C187.456 150.108 186.862 150.258 186.334 150.558C185.806 150.858 185.386 151.308 185.074 151.908C184.774 152.496 184.624 153.222 184.624 154.086C184.624 154.95 184.774 155.682 185.074 156.282C185.386 156.882 185.806 157.332 186.334 157.632C186.862 157.932 187.456 158.082 188.116 158.082C188.944 158.082 189.634 157.884 190.186 157.488C190.75 157.08 191.116 156.516 191.284 155.796H192.634C192.406 156.804 191.896 157.614 191.104 158.226C190.312 158.838 189.316 159.144 188.116 159.144C187.192 159.144 186.37 158.94 185.65 158.532C184.93 158.112 184.366 157.524 183.958 156.768C183.55 156 183.346 155.106 183.346 154.086ZM196.221 150.918C196.497 150.306 196.917 149.832 197.481 149.496C198.057 149.16 198.759 148.992 199.587 148.992V150.306H199.245C198.333 150.306 197.601 150.552 197.049 151.044C196.497 151.536 196.221 152.358 196.221 153.51V159H194.961V149.172H196.221V150.918ZM205.785 159.144C204.861 159.144 204.027 158.94 203.283 158.532C202.551 158.112 201.969 157.524 201.537 156.768C201.117 156 200.907 155.106 200.907 154.086C200.907 153.066 201.123 152.178 201.555 151.422C201.987 150.654 202.575 150.066 203.319 149.658C204.063 149.238 204.897 149.028 205.821 149.028C206.745 149.028 207.579 149.238 208.323 149.658C209.079 150.066 209.667 150.654 210.087 151.422C210.519 152.178 210.735 153.066 210.735 154.086C210.735 155.094 210.519 155.982 210.087 156.75C209.655 157.518 209.061 158.112 208.305 158.532C207.549 158.94 206.709 159.144 205.785 159.144ZM205.785 158.046C206.433 158.046 207.033 157.902 207.585 157.614C208.137 157.314 208.581 156.87 208.917 156.282C209.265 155.682 209.439 154.95 209.439 154.086C209.439 153.222 209.271 152.496 208.935 151.908C208.599 151.308 208.155 150.864 207.603 150.576C207.051 150.276 206.451 150.126 205.803 150.126C205.155 150.126 204.555 150.276 204.003 150.576C203.451 150.864 203.007 151.308 202.671 151.908C202.347 152.496 202.185 153.222 202.185 154.086C202.185 154.95 202.347 155.682 202.671 156.282C203.007 156.87 203.445 157.314 203.985 157.614C204.537 157.902 205.137 158.046 205.785 158.046ZM214.292 145.68V159H213.032V145.68H214.292ZM218.405 145.68V159H217.145V145.68H218.405Z" fill="white"/>
</svg>
