<svg width="84" height="17" viewBox="0 0 84 17" fill="none" xmlns="http://www.w3.org/2000/svg">
<path d="M2.33594 15.7004L8.30261 3.76708C9.07264 2.22703 11.2704 2.22703 12.0404 3.76708L16.1382 11.9627C16.9082 13.5027 19.1059 13.5027 19.876 11.9626L23.9737 3.76708C24.7438 2.22703 26.9415 2.22703 27.7115 3.76708L31.8093 11.9627C32.5793 13.5027 34.7771 13.5027 35.5471 11.9626L39.6449 3.76708C40.4149 2.22703 42.6126 2.22703 43.3827 3.76708L47.4805 11.9627C48.2505 13.5027 50.4482 13.5027 51.2182 11.9626L55.316 3.76708C56.086 2.22703 58.2838 2.22703 59.0538 3.76708L63.1516 11.9627C63.9216 13.5027 66.1193 13.5027 66.8894 11.9626L70.9872 3.76708C71.7572 2.22703 73.9549 2.22703 74.7249 3.76708L80.6916 15.7004" stroke="#3E69AD" stroke-width="5.22371"/>
</svg>
